<svg width="23" height="22" viewBox="0 0 23 22" fill="none" xmlns="http://www.w3.org/2000/svg">
<path fill-rule="evenodd" clip-rule="evenodd" d="M11.4962 0C8.76606 0.00139711 6.12544 0.95511 4.04652 2.6906C1.96759 4.4261 0.585926 6.83021 0.148572 9.47304C-0.288782 12.1159 0.24669 14.8251 1.65925 17.1163C3.07182 19.4075 5.26935 21.1312 7.85891 21.9793C8.43021 22.0839 8.6454 21.7346 8.6454 21.4377C8.6454 21.1408 8.63398 20.2798 8.63017 19.3386C5.43089 20.0202 4.75485 18.007 4.75485 18.007C4.23307 16.6997 3.47895 16.3561 3.47895 16.3561C2.43537 15.6576 3.55703 15.6707 3.55703 15.6707C4.71296 15.751 5.32045 16.8342 5.32045 16.8342C6.34498 18.5579 8.01126 18.0593 8.66635 17.7679C8.76918 17.0377 9.06817 16.541 9.39762 16.259C6.842 15.9751 4.15689 15.0077 4.15689 10.6862C4.14105 9.5654 4.56513 8.48155 5.34139 7.65886C5.22332 7.37499 4.82912 6.22831 5.45374 4.67076C5.45374 4.67076 6.41925 4.36822 8.61685 5.82678C10.5018 5.32126 12.4906 5.32126 14.3755 5.82678C16.5712 4.36822 17.5348 4.67076 17.5348 4.67076C18.1614 6.22457 17.7672 7.37125 17.6491 7.65886C18.4278 8.48168 18.8528 9.56742 18.8355 10.6899C18.8355 15.0208 16.1447 15.9751 13.5852 16.2534C13.9966 16.6045 14.3641 17.2899 14.3641 18.3432C14.3641 19.8521 14.3508 21.0661 14.3508 21.4377C14.3508 21.7384 14.5584 22.0895 15.1411 21.9793C17.731 21.1311 19.9287 19.4071 21.3412 17.1155C22.7538 14.8239 23.289 12.1143 22.8511 9.4712C22.4133 6.82812 21.0309 4.42399 18.9513 2.68879C16.8717 0.953596 14.2305 0.00051155 11.5 0H11.4962Z" fill="black"/>
</svg>
