<svg width="22" height="22" viewBox="0 0 22 22" fill="none" xmlns="http://www.w3.org/2000/svg">
<mask id="mask0_250_27" style="mask-type:alpha" maskUnits="userSpaceOnUse" x="0" y="0" width="23" height="22">
<path fill-rule="evenodd" clip-rule="evenodd" d="M1.62476 0H20.3712C21.2695 0 22 0.708984 22.004 1.58548V20.4145C22.004 21.2867 21.2736 22 20.3752 22H1.62476C0.72644 22 0 21.2867 0 20.4102V1.58548C0 0.708984 0.72644 0 1.62476 0ZM3.2616 18.7471H6.52722V8.24564H3.2616V18.7471ZM2.99976 4.92412C2.99976 2.32031 6.78503 2.32031 6.78503 4.92412C6.78503 7.51953 2.99976 7.43359 2.99976 4.92412ZM15.4862 18.7473H18.7465V12.9851C18.7465 10.1579 18.1368 7.98363 14.8323 7.98363C13.2465 7.98363 12.1816 8.85593 11.7479 9.68089H11.705V8.2458H8.57629V18.7473H11.8339V13.5566C11.8339 12.186 12.0917 10.8582 13.7889 10.8582C15.4647 10.8582 15.4862 12.4265 15.4862 13.6426V18.7473Z" fill="#6B6C7E"/>
</mask>
<g mask="url(#mask0_250_27)">
<rect width="22" height="22" fill="black"/>
</g>
</svg>
