<svg width="28" height="22" viewBox="0 0 28 22" fill="none" xmlns="http://www.w3.org/2000/svg">
<path d="M8.80544 22C19.3715 22 25.1507 13.5352 25.1507 6.19459C25.1507 5.95416 25.1507 5.71482 25.1339 5.47655C26.2582 4.69019 27.2287 3.71654 28 2.60117C26.9515 3.0504 25.8393 3.34501 24.7005 3.47515C25.8997 2.78093 26.7973 1.68903 27.2261 0.402663C26.0984 1.04971 24.8647 1.50572 23.5782 1.75101C22.7121 0.860433 21.5666 0.270718 20.3189 0.0731174C19.0712 -0.124483 17.791 0.0810484 16.6763 0.657906C15.5616 1.23476 14.6746 2.15079 14.1525 3.26423C13.6305 4.37766 13.5025 5.62644 13.7883 6.81732C11.5044 6.7066 9.27001 6.13267 7.23032 5.1328C5.19062 4.13292 3.39118 2.72944 1.9488 1.01348C1.21418 2.23637 0.989185 3.68403 1.31962 5.0617C1.65005 6.43937 2.51107 7.64346 3.72736 8.42883C2.81315 8.40263 1.91887 8.16416 1.12 7.73354C1.12 7.75628 1.12 7.78011 1.12 7.80394C1.12036 9.08645 1.57949 10.3294 2.41952 11.3219C3.25954 12.3144 4.42874 12.9953 5.7288 13.2493C4.88305 13.4723 3.99569 13.5049 3.13488 13.3446C3.50197 14.4484 4.21665 15.4136 5.17896 16.1053C6.14127 16.797 7.30309 17.1805 8.50192 17.2023C6.4677 18.7482 3.95479 19.5874 1.36752 19.5849C0.910452 19.584 0.453829 19.5573 0 19.5047C2.62711 21.135 5.6839 21.9997 8.80544 21.9957" fill="black"/>
</svg>
