<svg width="22" height="22" viewBox="0 0 22 22" fill="none" xmlns="http://www.w3.org/2000/svg">
<path fill-rule="evenodd" clip-rule="evenodd" d="M11 -7.47852e-08C4.92487 -3.34824e-08 3.34824e-08 4.92487 7.47852e-08 11C8.89166e-08 13.0786 0.577555 15.0253 1.58132 16.6851L0.600391 20.0202C0.352253 20.8639 1.13612 21.6478 1.97973 21.3996L5.31488 20.4186C6.97464 21.4225 8.92144 22 11 22C17.0751 22 22 17.0751 22 11C22 4.92486 17.0751 -1.16088e-07 11 -7.47852e-08ZM8.51203 13.489C10.7368 15.7137 12.8612 16.007 13.6113 16.0346C14.7522 16.0766 15.8631 15.2053 16.2962 14.1946C16.4023 13.9471 16.3758 13.6493 16.1981 13.4215C15.596 12.6505 14.781 12.0981 13.9847 11.5482C13.6407 11.3102 13.1676 11.3839 12.9141 11.7211L12.2533 12.7277C12.18 12.8393 12.0342 12.8777 11.9183 12.8114C11.4711 12.5557 10.8192 12.1198 10.3501 11.6508C9.88163 11.1823 9.47221 10.5598 9.24242 10.1414C9.18203 10.0314 9.21547 9.8956 9.31612 9.8208L10.332 9.06642C10.6349 8.80418 10.6881 8.35876 10.4652 8.03251C9.9715 7.31026 9.39642 6.39232 8.56405 5.78519C8.33671 5.61935 8.04914 5.60074 7.81171 5.70249C6.79987 6.13613 5.92431 7.24668 5.96638 8.38965C5.99399 9.13979 6.28729 11.2642 8.51203 13.489Z" fill="black"/>
</svg>
